<svg id="visual" viewBox="0 0 900 600" width="900" height="600" xmlns="http://www.w3.org/2000/svg" xmlns:xlink="http://www.w3.org/1999/xlink" version="1.1"><rect x="0" y="0" width="900" height="600" fill="#fff"></rect><path d="M0 74L18.8 65.2C37.7 56.3 75.3 38.7 112.8 35C150.3 31.3 187.7 41.7 225.2 50.8C262.7 60 300.3 68 337.8 74.3C375.3 80.7 412.7 85.3 450.2 80.7C487.7 76 525.3 62 562.8 54.5C600.3 47 637.7 46 675.2 54.3C712.7 62.7 750.3 80.3 787.8 78.2C825.3 76 862.7 54 881.3 43L900 32L900 0L881.3 0C862.7 0 825.3 0 787.8 0C750.3 0 712.7 0 675.2 0C637.7 0 600.3 0 562.8 0C525.3 0 487.7 0 450.2 0C412.7 0 375.3 0 337.8 0C300.3 0 262.7 0 225.2 0C187.7 0 150.3 0 112.8 0C75.3 0 37.7 0 18.8 0L0 0Z" fill="#001220" stroke-linecap="round" stroke-linejoin="miter"></path></svg>