<svg id="visual" viewBox="0 0 900 600" width="900" height="600" xmlns="http://www.w3.org/2000/svg" xmlns:xlink="http://www.w3.org/1999/xlink" version="1.1"><rect x="0" y="0" width="900" height="600" fill="#001220"></rect><path d="M0 508L25 516.7C50 525.3 100 542.7 150 530.3C200 518 250 476 300 475.3C350 474.7 400 515.3 450 524.8C500 534.3 550 512.7 600 489.7C650 466.7 700 442.3 750 427.3C800 412.3 850 406.7 875 403.8L900 401L900 601L875 601C850 601 800 601 750 601C700 601 650 601 600 601C550 601 500 601 450 601C400 601 350 601 300 601C250 601 200 601 150 601C100 601 50 601 25 601L0 601Z" fill="#FFFFFF" stroke-linecap="round" stroke-linejoin="miter"></path></svg>